<svg width="34" height="34" viewBox="0 0 34 34" fill="none" xmlns="http://www.w3.org/2000/svg">
<path d="M31.7863 3.82621H25.0363V1.25478C25.0363 1.07799 24.8917 0.93335 24.7149 0.93335H22.4649C22.2881 0.93335 22.1435 1.07799 22.1435 1.25478V3.82621H11.8578V1.25478C11.8578 1.07799 11.7131 0.93335 11.5363 0.93335H9.28634C9.10956 0.93335 8.96491 1.07799 8.96491 1.25478V3.82621H2.21491C1.50375 3.82621 0.929199 4.40076 0.929199 5.11192V31.7905C0.929199 32.5017 1.50375 33.0762 2.21491 33.0762H31.7863C32.4975 33.0762 33.0721 32.5017 33.0721 31.7905V5.11192C33.0721 4.40076 32.4975 3.82621 31.7863 3.82621ZM30.1792 30.1834H3.82206V14.9155H30.1792V30.1834ZM3.82206 12.1834V6.71906H8.96491V8.64764C8.96491 8.82442 9.10956 8.96906 9.28634 8.96906H11.5363C11.7131 8.96906 11.8578 8.82442 11.8578 8.64764V6.71906H22.1435V8.64764C22.1435 8.82442 22.2881 8.96906 22.4649 8.96906H24.7149C24.8917 8.96906 25.0363 8.82442 25.0363 8.64764V6.71906H30.1792V12.1834H3.82206Z" fill="currentColor" />
</svg>
