<svg width="32" height="32" viewBox="0 0 32 32" fill="none" xmlns="http://www.w3.org/2000/svg">
<path d="M16 0.25C7.30234 0.25 0.25 7.30234 0.25 16C0.25 24.6977 7.30234 31.75 16 31.75C24.6977 31.75 31.75 24.6977 31.75 16C31.75 7.30234 24.6977 0.25 16 0.25ZM21.8148 21.9836L19.4945 21.973L16 17.807L12.509 21.9695L10.1852 21.9801C10.0305 21.9801 9.90391 21.857 9.90391 21.6988C9.90391 21.632 9.92852 21.5688 9.9707 21.516L14.5445 16.0668L9.9707 10.6211C9.92822 10.5696 9.90465 10.5051 9.90391 10.4383C9.90391 10.2836 10.0305 10.157 10.1852 10.157L12.509 10.1676L16 14.3336L19.491 10.1711L21.8113 10.1605C21.966 10.1605 22.0926 10.2836 22.0926 10.4418C22.0926 10.5086 22.068 10.5719 22.0258 10.6246L17.459 16.0703L22.0293 21.5195C22.0715 21.5723 22.0961 21.6355 22.0961 21.7023C22.0961 21.857 21.9695 21.9836 21.8148 21.9836Z" fill="currentColor"/>
</svg>
