<svg width="24" height="29" viewBox="0 0 24 29" fill="none" xmlns="http://www.w3.org/2000/svg">
<path d="M6.17062 26.4436H16.942C18.7359 26.4436 19.901 25.3453 19.9851 23.5493L20.779 6.66631H22.0755C22.653 6.66631 23.103 6.20764 23.103 5.63015C23.103 5.05687 22.653 4.60781 22.0755 4.60781H1.0371C0.469216 4.60781 0 5.05687 0 5.63015C0 6.21725 0.469216 6.66631 1.0371 6.66631H2.33367L3.1275 23.5589C3.21375 25.3549 4.3575 26.4436 6.17062 26.4436ZM6.40218 24.3703C5.75319 24.3703 5.28936 23.8917 5.25631 23.2003L4.4592 6.66631H18.6033L17.8467 23.2003C17.8233 23.9034 17.3594 24.3703 16.6912 24.3703H6.40218ZM8.10069 22.4761C8.59452 22.4761 8.9128 22.1632 8.90108 21.7024L8.54202 9.41647C8.52819 8.95991 8.20569 8.65663 7.73319 8.65663C7.24359 8.65663 6.92742 8.96952 6.93913 9.42819L7.28859 21.7087C7.30242 22.1749 7.62702 22.4761 8.10069 22.4761ZM11.5526 22.4761C12.038 22.4761 12.3797 22.1674 12.3797 21.7109V9.42397C12.3797 8.96741 12.038 8.65663 11.5526 8.65663C11.0651 8.65663 10.733 8.96741 10.733 9.42397V21.7109C10.733 22.1674 11.0651 22.4761 11.5526 22.4761ZM15.0119 22.4761C15.4781 22.4761 15.8006 22.1749 15.8144 21.7087L16.1639 9.42819C16.1756 8.96952 15.8594 8.65663 15.3698 8.65663C14.8973 8.65663 14.5748 8.95991 14.561 9.42608L14.2116 21.7024C14.1998 22.1632 14.5181 22.4761 15.0119 22.4761ZM6.22875 5.39133H8.39155V2.95734C8.39155 2.35054 8.816 1.96124 9.46851 1.96124H13.6153C14.2678 1.96124 14.6923 2.35054 14.6923 2.95734V5.39133H16.8551V2.84859C16.8551 1.05656 15.7113 0 13.7695 0H9.31429C7.3725 0 6.22875 1.05656 6.22875 2.84859V5.39133Z" fill="currentColor"/>
</svg>
