<svg width="48" height="57" viewBox="0 0 48 57" fill="none" xmlns="http://www.w3.org/2000/svg">
<g filter="url(#filter0_d_170270_170417)">
<rect x="3" y="2" width="40" height="49" rx="5" fill="#43FE99"/>
<path d="M37.1751 21.2897L27.4904 11.3897C27.2349 11.1286 26.9008 11 26.5667 11C26.2326 11 25.8985 11.1286 25.643 11.3897L19.311 17.8665C18.8314 17.8103 18.348 17.7862 17.8645 17.7862C14.9874 17.7862 12.1103 18.7545 9.74803 20.6911C9.60498 20.8085 9.48774 20.9554 9.40393 21.1222C9.32012 21.289 9.27163 21.472 9.26162 21.6593C9.25161 21.8465 9.2803 22.0338 9.34582 22.209C9.41134 22.3842 9.51223 22.5432 9.64191 22.6759L16.7836 29.9763L8.31732 38.6228C8.21358 38.7282 8.14955 38.8676 8.13652 39.0165L8.00288 40.5112C7.96751 40.8888 8.2623 41.2103 8.62784 41.2103C8.64749 41.2103 8.66714 41.2103 8.68679 41.2063L10.1489 41.0696C10.2944 41.0576 10.4319 40.9893 10.5341 40.8848L19.0005 32.2304L26.1422 39.5308C26.3977 39.792 26.7318 39.9205 27.0659 39.9205C27.4471 39.9205 27.8245 39.7518 28.0839 39.4223C30.2967 36.5978 31.2165 33.0621 30.8431 29.6429L37.1751 23.1701C37.6822 22.6558 37.6822 21.8121 37.1751 21.2897V21.2897ZM28.8385 27.6058L27.8756 28.5902L28.0249 29.9723C28.2591 32.1101 27.8418 34.2696 26.83 36.1558L12.9514 21.9607C13.4584 21.6754 13.9851 21.4344 14.5354 21.2415C15.6045 20.8638 16.7247 20.675 17.8645 20.675C18.2419 20.675 18.6231 20.6951 19.0005 20.7393L20.3526 20.892L21.3155 19.9076L26.5706 14.5357L34.0976 22.2299L28.8385 27.6058Z" fill="white"/>
</g>
<defs>
<filter id="filter0_d_170270_170417" x="0" y="0" width="48" height="57" filterUnits="userSpaceOnUse" color-interpolation-filters="sRGB">
<feFlood flood-opacity="0" result="BackgroundImageFix"/>
<feColorMatrix in="SourceAlpha" type="matrix" values="0 0 0 0 0 0 0 0 0 0 0 0 0 0 0 0 0 0 127 0" result="hardAlpha"/>
<feOffset dx="1" dy="2"/>
<feGaussianBlur stdDeviation="2"/>
<feComposite in2="hardAlpha" operator="out"/>
<feColorMatrix type="matrix" values="0 0 0 0 0.6 0 0 0 0 0.6 0 0 0 0 0.6 0 0 0 1 0"/>
<feBlend mode="normal" in2="BackgroundImageFix" result="effect1_dropShadow_170270_170417"/>
<feBlend mode="normal" in="SourceGraphic" in2="effect1_dropShadow_170270_170417" result="shape"/>
</filter>
</defs>
</svg>
